<?xml version="1.0" encoding="UTF-8"?>
<svg version="1.1" xmlns="http://www.w3.org/2000/svg" width="149" height="148">
<path d="M0 0 C49.17 0 98.34 0 149 0 C149 48.84 149 97.68 149 148 C99.83 148 50.66 148 0 148 C0 99.16 0 50.32 0 0 Z " fill="#1C1C1A" transform="translate(0,0)"/>
<path d="M0 0 C49.17 0 98.34 0 149 0 C149 48.84 149 97.68 149 148 C99.83 148 50.66 148 0 148 C0 99.16 0 50.32 0 0 Z M22.8125 30.5625 C19.58710846 34.81868678 17.05196812 39.32176704 14.625 44.0625 C14.29089111 44.710979 13.95678223 45.35945801 13.61254883 46.02758789 C7.02607147 59.53452873 6.46977254 78.0654631 10.6875 92.375 C11.40784034 94.26997198 12.17539507 96.14801843 13 98 C13.36222656 98.87269531 13.72445313 99.74539062 14.09765625 100.64453125 C17.07555287 107.21609295 21.26338032 112.59715057 26 118 C26.55558594 118.639375 27.11117188 119.27875 27.68359375 119.9375 C37.52055377 130.50574482 53.46572724 138.69272434 67.96875 139.3359375 C88.78855411 139.6833411 105.26019941 135.0364523 121 121 C134.0308588 106.87788701 140.98411077 91.37943163 140.6875 72.0625 C140.67533447 70.74725342 140.66316895 69.43200684 140.65063477 68.0769043 C140.38783139 58.10707185 139.09206324 50.61124472 134 42 C133.22269531 40.54400391 133.22269531 40.54400391 132.4296875 39.05859375 C123.86163993 24.17833722 110.23136312 14.12569362 94 9 C93.01386719 8.65324219 92.02773437 8.30648438 91.01171875 7.94921875 C85.8400591 6.48821293 80.58439357 6.67091296 75.25 6.6875 C73.71859375 6.66333008 73.71859375 6.66333008 72.15625 6.63867188 C52.78798977 6.62638237 35.37560356 16.023452 22.8125 30.5625 Z " fill="#1B1A1A" transform="translate(0,0)"/>
<path d="M0 0 C1.093125 0.49757813 2.18625 0.99515625 3.3125 1.5078125 C20.63790695 10.13041087 32.20381216 24.4427474 38.94604492 42.36132812 C40.73726451 48.54533014 40.72326079 54.54072263 40.625 60.9375 C40.64433594 62.19240234 40.66367188 63.44730469 40.68359375 64.74023438 C40.59709495 81.51235147 33.4594104 96.88516791 22.01953125 109.046875 C18.88753947 112.07588059 15.64054935 114.61108804 12 117 C10.69095703 117.88171875 10.69095703 117.88171875 9.35546875 118.78125 C-5.12780462 127.93266236 -22.41217991 130.644062 -39.27099609 127.58837891 C-43.7173779 126.50829038 -47.82699983 124.88587508 -52 123 C-52.969375 122.5771875 -53.93875 122.154375 -54.9375 121.71875 C-69.0419427 114.82680641 -81.12898568 101.52027649 -87 87 C-87.37125 86.16210938 -87.7425 85.32421875 -88.125 84.4609375 C-90.98749056 76.92702137 -91.39082701 69.87818947 -91.4375 61.875 C-91.44749023 60.87404297 -91.45748047 59.87308594 -91.46777344 58.84179688 C-91.27028994 41.6550903 -83.81661191 26.30571009 -72 14 C-66.59741479 8.73909097 -60.60710706 5.03943483 -53.9375 1.625 C-53.289021 1.29089111 -52.64054199 0.95678223 -51.97241211 0.61254883 C-36.88137229 -6.74639302 -15.21927958 -6.98928872 0 0 Z M-67 27 C-77.01950663 40.31903381 -80.43071255 53.54781251 -78.6796875 70.01171875 C-76.61591378 83.46377108 -69.01045677 96.87323429 -58 105 C-46.79692772 112.91683774 -33.76864847 117.39429352 -20 116 C-4.75993394 113.12821025 8.28546154 106.88002294 18.00390625 94.43359375 C19.851626 91.69194479 21.45459257 88.92215364 23 86 C23.76183594 84.60587891 23.76183594 84.60587891 24.5390625 83.18359375 C29.95747243 71.5748775 30.10937657 56.43005521 26.375 44.25 C20.03534306 28.67063029 9.6905441 17.8389255 -5.78125 11.1875 C-28.17963687 2.92401747 -51.10242605 9.67372251 -67 27 Z " fill="#D0B058" transform="translate(100,11)"/>
<path d="M0 0 C3.90878472 0.42067638 6.18315519 2.52987958 9.125 5 C9.99382812 5.721875 10.86265625 6.44375 11.7578125 7.1875 C12.23718262 7.61748291 12.71655273 8.04746582 13.21044922 8.49047852 C15.0769113 10.11462992 15.0769113 10.11462992 17.57470703 11.77319336 C21.81929304 14.95907921 24.59902498 17.2328301 25.80224609 22.53564453 C25.98329828 26.59232929 25.87840828 30.51609563 25.625 34.5625 C25.57474224 35.96663702 25.52913181 37.37094845 25.48828125 38.77539062 C25.37109656 42.185465 25.19174645 45.59330471 25 49 C19.72 49 14.44 49 9 49 C8.96261719 47.80761719 8.92523438 46.61523438 8.88671875 45.38671875 C8.82105968 43.820281 8.75461232 42.25387616 8.6875 40.6875 C8.66494141 39.90181641 8.64238281 39.11613281 8.61914062 38.30664062 C8.5659668 37.1706543 8.5659668 37.1706543 8.51171875 36.01171875 C8.48553467 35.31522217 8.45935059 34.61872559 8.43237305 33.90112305 C7.87046322 31.43043312 7.0065985 30.51867181 5 29 C1.5 28.41666667 1.5 28.41666667 -2 29 C-5.14575703 31.83778082 -5.39839522 34.70135779 -5.61206055 38.82910156 C-5.64940308 40.02744629 -5.64940308 40.02744629 -5.6875 41.25 C-5.790625 43.8075 -5.89375 46.365 -6 49 C-11.28 49 -16.56 49 -22 49 C-22.231458 44.88776278 -22.42961582 40.79230809 -22.54931641 36.67700195 C-22.59922342 35.28266449 -22.66718831 33.88884022 -22.75439453 32.49633789 C-23.45650212 20.98590356 -23.45650212 20.98590356 -19.94262695 16.19482422 C-17.40570461 13.8994342 -14.82020004 11.93236914 -12 10 C-10.87375202 9.07497459 -9.75569033 8.13972521 -8.65234375 7.1875 C-7.75644531 6.465625 -6.86054687 5.74375 -5.9375 5 C-2.87817781 2.60264533 -2.87817781 2.60264533 0 0 Z " fill="#D5B45D" transform="translate(73,57)"/>
<path d="M0 0 C3.86034118 1.63856208 6.80466132 4.21845023 9.9375 6.9375 C11.10139239 7.93639615 12.2654598 8.93508842 13.4296875 9.93359375 C14.02233398 10.44390137 14.61498047 10.95420898 15.22558594 11.47998047 C16.91442345 12.92669241 18.61414592 14.35894732 20.3203125 15.78515625 C25.90080555 20.45202136 31.41323006 25.18646825 36.8125 30.0625 C37.33465088 30.52785156 37.85680176 30.99320313 38.39477539 31.47265625 C39.63626762 32.60638519 40.82394979 33.79852167 42 35 C42 35.66 42 36.32 42 37 C37.34395788 37.81808983 33.55641354 37.93102683 29.4140625 35.453125 C27.07762618 33.53065187 24.82269749 31.55071703 22.61132812 29.48583984 C20.15241433 27.21842327 17.61272406 25.04691069 15.07885742 22.86401367 C13.75732382 21.72425294 12.43962195 20.5800308 11.1262207 19.4309082 C8.65266434 17.26699741 6.22772283 15.16396044 3.55859375 13.2421875 C3.04425781 12.83226562 2.52992187 12.42234375 2 12 C2 11.34 2 10.68 2 10 C-5.3199375 15.91570459 -12.50953294 21.96463315 -19.640625 28.10546875 C-20.19161865 28.57436523 -20.7426123 29.04326172 -21.31030273 29.52636719 C-22.48706166 30.55265196 -23.63879758 31.60804294 -24.76977539 32.68457031 C-29.2625273 36.86015056 -29.2625273 36.86015056 -33.08984375 37.5859375 C-34.02957031 37.51632813 -34.96929687 37.44671875 -35.9375 37.375 C-36.89527344 37.32085937 -37.85304687 37.26671875 -38.83984375 37.2109375 C-39.55269531 37.14132813 -40.26554687 37.07171875 -41 37 C-39.5045292 33.40278644 -37.47293692 31.36902779 -34.5625 28.8125 C-33.66015625 28.01972656 -32.7578125 27.22695312 -31.828125 26.41015625 C-28.29174257 23.39641597 -24.69540887 20.46365309 -21.08203125 17.54296875 C-16.65978586 13.89419594 -12.34712526 10.12247851 -8.03833008 6.34082031 C-7.42755615 5.80682617 -6.81678223 5.27283203 -6.1875 4.72265625 C-5.37345703 4.00734741 -5.37345703 4.00734741 -4.54296875 3.27758789 C-3 2 -3 2 0 0 Z " fill="#D4B963" transform="translate(74,40)"/>
<path d="M0 0 C0 9.57 0 19.14 0 29 C-4.95 29 -9.9 29 -15 29 C-15.04125 26.56625 -15.0825 24.1325 -15.125 21.625 C-15.14320801 20.86010254 -15.16141602 20.09520508 -15.18017578 19.30712891 C-15.1948117 17.53712725 -15.09928514 15.76727545 -15 14 C-14.34 13.34 -13.68 12.68 -13 12 C-11.58901023 9.75524354 -10.26165743 7.47785314 -8.98828125 5.15234375 C-5.39704556 -1.34926139 -5.39704556 -1.34926139 0 0 Z " fill="#D1B04F" transform="translate(98,76)"/>
<path d="M0 0 C9.30614407 4.25423729 9.30614407 4.25423729 12.1875 9 C11.589375 9.20625 10.99125 9.4125 10.375 9.625 C7.34477407 11.52971344 6.6435427 13.77138357 5.1875 17 C3.597785 19.73430979 1.94244451 22.36758323 0.1875 25 C-0.10702584 27.38677076 -0.3053217 29.78626094 -0.4375 32.1875 C-0.56125 34.435625 -0.685 36.68375 -0.8125 39 C4.1375 39 9.0875 39 14.1875 39 C14.1875 39.33 14.1875 39.66 14.1875 40 C8.9075 40 3.6275 40 -1.8125 40 C-1.84988281 38.80761719 -1.88726562 37.61523438 -1.92578125 36.38671875 C-1.99144032 34.820281 -2.05788768 33.25387616 -2.125 31.6875 C-2.14755859 30.90181641 -2.17011719 30.11613281 -2.19335938 29.30664062 C-2.22880859 28.54931641 -2.26425781 27.79199219 -2.30078125 27.01171875 C-2.32696533 26.31522217 -2.35314941 25.61872559 -2.38012695 24.90112305 C-2.93347967 22.46805834 -3.89662721 21.55474132 -5.8125 20 C-7.84591887 19.22186348 -7.84591887 19.22186348 -10 18.8125 C-11.258125 18.544375 -12.51625 18.27625 -13.8125 18 C-12.31455431 14.91851171 -10.67502874 11.95289858 -8.9375 9 C-8.44507812 8.154375 -7.95265625 7.30875 -7.4453125 6.4375 C-3.13301282 0 -3.13301282 0 0 0 Z " fill="#B38B40" transform="translate(83.8125,66)"/>
<path d="M0 0 C1 3 1 3 -0.40625 6.08203125 C-1.09489207 7.33068097 -1.79350752 8.57386269 -2.5 9.8125 C-3.24897841 11.16839784 -3.99634005 12.52518987 -4.7421875 13.8828125 C-5.31211426 14.91390137 -5.31211426 14.91390137 -5.89355469 15.96582031 C-7.54629621 19.0043557 -9.08632184 22.08944398 -10.625 25.1875 C-11.46998047 26.88519531 -11.46998047 26.88519531 -12.33203125 28.6171875 C-13.46258145 30.91005981 -14.58472711 33.20709184 -15.69921875 35.5078125 C-16.23160156 36.59835938 -16.76398437 37.68890625 -17.3125 38.8125 C-17.78300781 39.78832031 -18.25351562 40.76414063 -18.73828125 41.76953125 C-20 44 -20 44 -22 45 C-22.75195822 30.12793734 -22.75195822 30.12793734 -18 23 C-17.34 22.67 -16.68 22.34 -16 22 C-14.89855315 20.01111799 -13.86581405 17.9837464 -12.875 15.9375 C-12.06675781 14.28041016 -12.06675781 14.28041016 -11.2421875 12.58984375 C-10.62730469 11.30787109 -10.62730469 11.30787109 -10 10 C-10.66 9.67 -11.32 9.34 -12 9 C-10.75482035 7.86966702 -9.50363348 6.74594964 -8.25 5.625 C-7.55390625 4.99851562 -6.8578125 4.37203125 -6.140625 3.7265625 C-4.15491312 2.12494817 -2.32045907 1.03479932 0 0 Z " fill="#EDD06C" transform="translate(74,58)"/>
<path d="M0 0 C2.96325944 1.35108966 5.20785165 2.88706648 7.625 5.0625 C8.30820313 5.67609375 8.99140625 6.2896875 9.6953125 6.921875 C10.83613281 7.95054688 10.83613281 7.95054688 12 9 C13.35738281 10.18335937 13.35738281 10.18335937 14.7421875 11.390625 C15.65226562 12.18984375 16.56234375 12.9890625 17.5 13.8125 C18.3559375 14.56144531 19.211875 15.31039062 20.09375 16.08203125 C22 18 22 18 22 20 C17.20020558 20.84334783 13.48198418 20.90554055 9.23828125 18.3125 C6.38770912 15.97023246 3.68543769 13.5297051 1 11 C-0.89446248 9.31096116 -2.79022155 7.62337507 -4.6875 5.9375 C-6.12732469 4.62755063 -7.56573744 3.31603701 -9 2 C-5.09161134 2 -3.88405893 3.50567876 -1 6 C0.10836423 4.11683841 0.10836423 4.11683841 1 2 C0.67 1.34 0.34 0.68 0 0 Z " fill="#E0C866" transform="translate(94,57)"/>
<path d="M0 0 C3.66408878 1.61881357 6.57333044 3.8720226 9.6875 6.375 C10.66074219 7.14585938 11.63398437 7.91671875 12.63671875 8.7109375 C14.9310094 10.93317605 15.86695979 11.84694714 16 15 C14.5625 17.25 14.5625 17.25 13 19 C11.56770833 17.73046875 10.13541667 16.4609375 8.703125 15.19140625 C7.06005639 13.88798382 7.06005639 13.88798382 5.03125 13.5234375 C2.51426602 12.87483009 1.19784099 11.76477984 -0.75 10.0625 C-1.36359375 9.53785156 -1.9771875 9.01320313 -2.609375 8.47265625 C-4 7 -4 7 -4 5 C-4.66 4.67 -5.32 4.34 -6 4 C-5.195625 3.525625 -4.39125 3.05125 -3.5625 2.5625 C-1.15246512 1.23099846 -1.15246512 1.23099846 0 0 Z " fill="#B48A3F" transform="translate(80,45)"/>
<path d="M0 0 C0.99 0.33 1.98 0.66 3 1 C1.58465326 5.83576801 -0.3365317 9.75509739 -3 14 C-3.99 14.495 -3.99 14.495 -5 15 C-7.71859802 20.21568065 -8.50083275 24.60814838 -8.6875 30.4375 C-8.72166016 31.16904297 -8.75582031 31.90058594 -8.79101562 32.65429688 C-8.87251753 34.43569562 -8.93795523 36.21781749 -9 38 C-4.05 38 0.9 38 6 38 C6 38.33 6 38.66 6 39 C0.72 39 -4.56 39 -10 39 C-10.231458 34.88776278 -10.42961582 30.79230809 -10.54931641 26.67700195 C-10.59922342 25.28266449 -10.66718831 23.88884022 -10.75439453 22.49633789 C-11.46066189 10.91770771 -11.46066189 10.91770771 -7.72949219 6.01904297 C-5.25139034 3.7887513 -2.78477959 1.82815914 0 0 Z " fill="#BB9446" transform="translate(61,67)"/>
<path d="M0 0 C0.33 0 0.66 0 1 0 C1 6.6 1 13.2 1 20 C-2.14930893 21.04976964 -4.38814456 21.10131595 -7.6875 21.0625 C-8.68136719 21.05347656 -9.67523438 21.04445313 -10.69921875 21.03515625 C-11.83810547 21.01775391 -11.83810547 21.01775391 -13 21 C-13 19.35 -13 17.7 -13 16 C-12.01 16 -11.02 16 -10 16 C-5.35149526 11.35149526 -2.74886001 5.91882198 0 0 Z " fill="#F1DB6E" transform="translate(96,84)"/>
<path d="M0 0 C0.33 0.66 0.66 1.32 1 2 C0.33333333 4 -0.33333333 6 -1 8 C-0.87625 9.2684375 -0.87625 9.2684375 -0.75 10.5625 C-1 13 -1 13 -3.3125 15.8125 C-7.66748416 19.17056007 -12.77802031 18.41813005 -18 18 C-16.47790339 14.27086332 -14.25967803 12.19368821 -11.25 9.5625 C-10.36054687 8.78132813 -9.47109375 8.00015625 -8.5546875 7.1953125 C-5.72692811 4.7653419 -2.88899364 2.3568106 0 0 Z " fill="#C8AC5F" transform="translate(51,59)"/>
<path d="M0 0 C0.66 0.99 1.32 1.98 2 3 C1.525625 3.7425 1.05125 4.485 0.5625 5.25 C-0.8243706 7.69089226 -1.42998896 9.3128051 -2 12 C-2.33 12.94875 -2.66 13.8975 -3 14.875 C-8.8875369 33.27355281 -3.43415709 51.50140229 5 68 C2 67 2 67 0.75390625 65.171875 C-0.57265741 62.4752538 -1.81257522 59.76094474 -3 57 C-3.59941406 55.65808594 -3.59941406 55.65808594 -4.2109375 54.2890625 C-7.03112332 46.82857095 -7.38591827 39.79431342 -7.4375 31.875 C-7.4475708 30.87388184 -7.4576416 29.87276367 -7.46801758 28.84130859 C-7.347052 18.39022572 -4.54576896 9.34536257 0 0 Z " fill="#A77928" transform="translate(16,41)"/>
<path d="M0 0 C2.62187494 1.04874998 3.79371361 1.64931313 5.25 4.125 C5.4975 4.74375 5.745 5.3625 6 6 C4.6875 7.5 4.6875 7.5 3 9 C2.01 9 1.02 9 0 9 C-0.24492188 9.58265625 -0.48984375 10.1653125 -0.7421875 10.765625 C-2.20435874 13.36302236 -3.84740414 14.83975831 -6.125 16.75 C-7.21167969 17.67039062 -7.21167969 17.67039062 -8.3203125 18.609375 C-8.87460938 19.06828125 -9.42890625 19.5271875 -10 20 C-10.66 19.34 -11.32 18.68 -12 18 C-4.70159453 8.58997722 -4.70159453 8.58997722 -1 4 C-2.65 4.66 -4.3 5.32 -6 6 C-4 4 -2 2 0 0 Z " fill="#C7A249" transform="translate(74,40)"/>
<path d="M0 0 C1 4 1 4 0 6 C-0.66 6 -1.32 6 -2 6 C-2.226875 6.825 -2.45375 7.65 -2.6875 8.5 C-3.99755471 11.99347923 -5.60566275 14.72489626 -7.625 17.83203125 C-9.92349705 21.456082 -11.95000372 25.23149619 -14 29 C-14.66 29 -15.32 29 -16 29 C-16.495 31.475 -16.495 31.475 -17 34 C-17.33 34 -17.66 34 -18 34 C-17.50437849 29.04378488 -16.55784896 25.29718625 -14 21 C-13.34 20.67 -12.68 20.34 -12 20 C-10.89855315 18.01111799 -9.86581405 15.9837464 -8.875 13.9375 C-8.06675781 12.28041016 -8.06675781 12.28041016 -7.2421875 10.58984375 C-6.62730469 9.30787109 -6.62730469 9.30787109 -6 8 C-6.66 7.67 -7.32 7.34 -8 7 C-4.04 3.535 -4.04 3.535 0 0 Z " fill="#DEBF62" transform="translate(70,60)"/>
<path d="M0 0 C1.31611677 0.95336021 2.62778961 1.91285774 3.9375 2.875 C4.66839844 3.40867188 5.39929688 3.94234375 6.15234375 4.4921875 C8 6 8 6 9 8 C7.02 7.34 5.04 6.68 3 6 C-0.85550018 9.63635985 -3.86741138 13.41691848 -6.8125 17.8125 C-7.21919922 18.40998047 -7.62589844 19.00746094 -8.04492188 19.62304688 C-9.03479703 21.07874564 -10.01809735 22.53891174 -11 24 C-11.33 23.01 -11.66 22.02 -12 21 C-10.92578125 19.203125 -10.92578125 19.203125 -9.3125 17.25 C-5.06073761 11.86377665 -1.94909212 6.65939809 0 0 Z M-13 24 C-13 30.62079121 -15.86245446 34.24182263 -20 39 C-21.27852287 41.21587348 -21.27852287 41.21587348 -22 43 C-22.33 42.01 -22.66 41.02 -23 40 C-21.890625 37.94921875 -21.890625 37.94921875 -20.25 35.6875 C-17.82228004 32.23461755 -15.81510445 28.82127253 -14 25 C-13.67 24.67 -13.34 24.34 -13 24 Z " fill="#C7A758" transform="translate(79,60)"/>
<path d="M0 0 C3.94139078 1.66751148 6.7892812 4.22710649 10 7 C9.01 7.495 9.01 7.495 8 8 C7.690625 8.66 7.38125 9.32 7.0625 10 C6 12 6 12 3 13 C-0.96 9.37 -4.92 5.74 -9 2 C-5.09161134 2 -3.88405893 3.50567876 -1 6 C0.10836423 4.11683841 0.10836423 4.11683841 1 2 C0.67 1.34 0.34 0.68 0 0 Z " fill="#C1A75E" transform="translate(94,57)"/>
<path d="M0 0 C0.66 0.66 1.32 1.32 2 2 C1.54109375 2.42410156 1.0821875 2.84820312 0.609375 3.28515625 C-2.97148146 6.70803375 -5.67111544 9.84372039 -7.96484375 14.22265625 C-9.85112465 17.46136497 -12.26912184 20.43297453 -15 23 C-15.66 23 -16.32 23 -17 23 C-15.45912261 15.29561307 -12.73868081 11.27892525 -6.64453125 6.48046875 C-6.10183594 5.99191406 -5.55914062 5.50335938 -5 5 C-5 4.34 -5 3.68 -5 3 C-2.5 1.375 -2.5 1.375 0 0 Z " fill="#EACD6C" transform="translate(72,43)"/>
<path d="M0 0 C1.07569695 2.71788519 1.08532297 3.78320661 -0.00390625 6.55078125 C-3.2250686 12.25845488 -6.5243501 17.20466082 -11 22 C-11.66 21.34 -12.32 20.68 -13 20 C-12.625 17.875 -12.625 17.875 -12 16 C-11.67 16.33 -11.34 16.66 -11 17 C-10.401875 15.948125 -9.80375 14.89625 -9.1875 13.8125 C-8.45864876 12.54148574 -7.72949381 11.27064557 -7 10 C-6.505 9.13375 -6.01 8.2675 -5.5 7.375 C-3.8426778 4.75090651 -1.97884742 2.38826413 0 0 Z " fill="#DDC15E" transform="translate(96,80)"/>
<path d="M0 0 C3.23861303 1.44424635 5.61969163 3.25772247 8.25 5.625 C8.95640625 6.25664063 9.6628125 6.88828125 10.390625 7.5390625 C10.92171875 8.02117188 11.4528125 8.50328125 12 9 C8.48283697 9 7.62878252 8.17554415 5 6 C4.01 7.32 3.02 8.64 2 10 C-0.4375 9.1875 -0.4375 9.1875 -3 8 C-3.33 7.01 -3.66 6.02 -4 5 C-4.66 4.67 -5.32 4.34 -6 4 C-5.195625 3.525625 -4.39125 3.05125 -3.5625 2.5625 C-1.15246512 1.23099846 -1.15246512 1.23099846 0 0 Z " fill="#BB9546" transform="translate(80,45)"/>
<path d="M0 0 C0.66 0.33 1.32 0.66 2 1 C0.125 5.75 0.125 5.75 -1 8 C-1.15306901 9.81171098 -1.24946661 11.6283794 -1.31640625 13.4453125 C-1.35830078 14.52167969 -1.40019531 15.59804687 -1.44335938 16.70703125 C-1.48267578 17.83496094 -1.52199219 18.96289062 -1.5625 20.125 C-1.60568359 21.26066406 -1.64886719 22.39632812 -1.69335938 23.56640625 C-1.79965945 26.37745261 -1.90035397 29.1887099 -2 32 C2.95 32 7.9 32 13 32 C13 32.33 13 32.66 13 33 C7.72 33 2.44 33 -3 33 C-3.06889888 28.7818576 -3.12861776 24.56566905 -3.16479492 20.34741211 C-3.17987589 18.91277448 -3.2003438 17.47818292 -3.22631836 16.04370117 C-3.26273437 13.98084141 -3.27973243 11.91859142 -3.29296875 9.85546875 C-3.3086792 8.61434326 -3.32438965 7.37321777 -3.34057617 6.09448242 C-3 3 -3 3 -1.48168945 1.0715332 C-0.99273193 0.71792725 -0.50377441 0.36432129 0 0 Z " fill="#977937" transform="translate(54,73)"/>
<path d="M0 0 C2.93453261 0.36681658 3.86437246 0.86437246 6 3 C5.86244938 8.63957546 3.09826429 13.415341 0 18 C-0.66 18.33 -1.32 18.66 -2 19 C-1.52269162 17.5410574 -1.04308958 16.08286504 -0.5625 14.625 C-0.29566406 13.81289062 -0.02882813 13.00078125 0.24609375 12.1640625 C1 10 1 10 2 8 C1.01 8.66 0.02 9.32 -1 10 C-0.34 7.36 0.32 4.72 1 2 C0.01 2 -0.98 2 -2 2 C-1.34 1.34 -0.68 0.68 0 0 Z " fill="#D7B659" transform="translate(73,57)"/>
<path d="M0 0 C-0.875 4.75 -0.875 4.75 -2 7 C-1.01 7.33 -0.02 7.66 1 8 C-2.63 8 -6.26 8 -10 8 C-7.69075688 3.38151376 -5.46279388 0 0 0 Z " fill="#B38D43" transform="translate(43,69)"/>
<path d="M0 0 C1.1446875 0.12375 1.1446875 0.12375 2.3125 0.25 C2.3125 4.41459066 -0.00058266 6.3378321 -2.6875 9.25 C-3.244375 9.78625 -3.80125 10.3225 -4.375 10.875 C-5.81306181 12.24126811 -5.81306181 12.24126811 -6.6875 14.3125 C-7.6875 16.25 -7.6875 16.25 -10.6875 18.25 C-11.0175 17.59 -11.3475 16.93 -11.6875 16.25 C-4.38909453 6.83997722 -4.38909453 6.83997722 -0.6875 2.25 C-2.3375 2.91 -3.9875 3.57 -5.6875 4.25 C-3.34903846 0.31153846 -3.34903846 0.31153846 0 0 Z " fill="#D7B85F" transform="translate(73.6875,41.75)"/>
<path d="M0 0 C0.33 0 0.66 0 1 0 C1 3.96 1 7.92 1 12 C-1.64 12 -4.28 12 -7 12 C-6.20994338 10.56161448 -5.41788955 9.12432585 -4.625 7.6875 C-4.18414062 6.88699219 -3.74328125 6.08648437 -3.2890625 5.26171875 C-2.26486665 3.46472057 -1.14732862 1.72099292 0 0 Z " fill="#BF9543" transform="translate(65,92)"/>
<path d="M0 0 C0.33 0.99 0.66 1.98 1 3 C0.01 3.99 -0.98 4.98 -2 6 C-1.49396008 3.83125748 -1.00016187 2.00032373 0 0 Z M-3 6 C-3 12.62079121 -5.86245446 16.24182263 -10 21 C-11.27852287 23.21587348 -11.27852287 23.21587348 -12 25 C-12.33 24.01 -12.66 23.02 -13 22 C-11.890625 19.94921875 -11.890625 19.94921875 -10.25 17.6875 C-7.82228004 14.23461755 -5.81510445 10.82127253 -4 7 C-3.67 6.67 -3.34 6.34 -3 6 Z " fill="#D2B056" transform="translate(69,78)"/>
<path d="M0 0 C0.33 0.99 0.66 1.98 1 3 C-0.75 5.375 -0.75 5.375 -3 8 C-4.40877904 10.23056682 -5.7195412 12.4969202 -7.00390625 14.80078125 C-9.82016509 19.82016509 -9.82016509 19.82016509 -12 22 C-12.33 19.69 -12.66 17.38 -13 15 C-12.01 15.495 -12.01 15.495 -11 16 C-10.18595703 14.77023438 -10.18595703 14.77023438 -9.35546875 13.515625 C-8.28232422 11.89914063 -8.28232422 11.89914063 -7.1875 10.25 C-6.47980469 9.18265625 -5.77210937 8.1153125 -5.04296875 7.015625 C-3.42050074 4.6207009 -1.76324711 2.29166502 0 0 Z " fill="#D2B457" transform="translate(96,77)"/>
<path d="M0 0 C0.66 0.99 1.32 1.98 2 3 C1.525625 3.7425 1.05125 4.485 0.5625 5.25 C-0.8243706 7.69089226 -1.42998896 9.3128051 -2 12 C-2.33 12.94875 -2.66 13.8975 -3 14.875 C-3.97405473 17.91892103 -4.54869617 20.84087322 -5 24 C-5.66 23.67 -6.32 23.34 -7 23 C-6.01027945 14.5356735 -3.90670036 7.57482359 0 0 Z " fill="#9D7329" transform="translate(16,41)"/>
<path d="M0 0 C0.66 0.33 1.32 0.66 2 1 C-3.37691075 6.01845003 -9.1475773 10.19574421 -16 13 C-16.99 12.67 -17.98 12.34 -19 12 C-18.04738281 11.46890625 -17.09476562 10.9378125 -16.11328125 10.390625 C-14.84622221 9.67731769 -13.57930249 8.96376284 -12.3125 8.25 C-11.68666016 7.90195313 -11.06082031 7.55390625 -10.41601562 7.1953125 C-6.66255451 5.07293658 -3.30140728 2.80272435 0 0 Z " fill="#E3D791" transform="translate(117,121)"/>
<path d="M0 0 C4.06214953 2.35866747 7.94175609 4.95423364 11.83984375 7.5703125 C14.18449187 9.12210493 16.56854264 10.58818605 19 12 C16 13 16 13 13.22265625 11.70703125 C12.17980469 11.08183594 11.13695312 10.45664063 10.0625 9.8125 C9.02222656 9.20019531 7.98195313 8.58789062 6.91015625 7.95703125 C4.23147003 6.15565971 2.10000497 4.44410217 0 2 C0 1.34 0 0.68 0 0 Z " fill="#DBCD8F" transform="translate(36,111)"/>
<path d="M0 0 C0.66 0.99 1.32 1.98 2 3 C1.38511719 3.59167969 0.77023438 4.18335938 0.13671875 4.79296875 C-0.67152344 5.58316406 -1.47976562 6.37335937 -2.3125 7.1875 C-3.11300781 7.96480469 -3.91351563 8.74210937 -4.73828125 9.54296875 C-6.91076308 11.90305695 -8.46130013 14.19647888 -10 17 C-10.33 16.34 -10.66 15.68 -11 15 C-7.59445921 9.73369981 -4.12331138 4.7296807 0 0 Z " fill="#B99953" transform="translate(28,25)"/>
<path d="M0 0 C0 3.69418201 -1.28179295 5.77836178 -3 9 C-0.03 9.495 -0.03 9.495 3 10 C3 10.33 3 10.66 3 11 C-0.63 11 -4.26 11 -8 11 C-8 9.35 -8 7.7 -8 6 C-7.01 6 -6.02 6 -5 6 C-3.54965396 4.69543498 -3.54965396 4.69543498 -2.3125 3 C-1.1678125 1.515 -1.1678125 1.515 0 0 Z " fill="#E6CF6A" transform="translate(91,94)"/>
<path d="M0 0 C1 4 1 4 0 6 C-0.99 6.33 -1.98 6.66 -3 7 C-4.69882448 9.49759982 -4.69882448 9.49759982 -6 12 C-6.33 11.34 -6.66 10.68 -7 10 C-6.67 9.34 -6.34 8.68 -6 8 C-6.66 7.67 -7.32 7.34 -8 7 C-5.36 4.69 -2.72 2.38 0 0 Z " fill="#D5BA68" transform="translate(70,60)"/>
<path d="M0 0 C0.99 0.33 1.98 0.66 3 1 C-1.03330598 5.24809742 -4.88413503 9.09325854 -10 12 C-10.99 12 -11.98 12 -13 12 C-4.49685535 3.27044025 -4.49685535 3.27044025 0 0 Z " fill="#D2BC73" transform="translate(65,47)"/>
<path d="M0 0 C0.66 0.33 1.32 0.66 2 1 C-0.07430827 3.15524226 -2.15853821 5.29901391 -4.25 7.4375 C-4.83652344 8.04916016 -5.42304687 8.66082031 -6.02734375 9.29101562 C-6.88779297 10.1659668 -6.88779297 10.1659668 -7.765625 11.05859375 C-8.55114746 11.86768188 -8.55114746 11.86768188 -9.35253906 12.69311523 C-11.21582454 14.17120758 -12.67793522 14.59165211 -15 15 C-13.6082886 11.68130359 -12.13354851 10.09600576 -9.1875 8.0625 C-5.76443995 5.61211275 -2.88180575 3.0619186 0 0 Z " fill="#DFD48D" transform="translate(117,106)"/>
<path d="M0 0 C1.67542976 0.28604898 3.34385343 0.61781233 5 1 C4.01 1.495 4.01 1.495 3 2 C2.690625 2.66 2.38125 3.32 2.0625 4 C1 6 1 6 -2 7 C-3.32 5.35 -4.64 3.7 -6 2 C-4.7934375 1.7834375 -4.7934375 1.7834375 -3.5625 1.5625 C-1.07896294 1.25864751 -1.07896294 1.25864751 0 0 Z " fill="#CEB664" transform="translate(99,63)"/>
<path d="M0 0 C0.66 0.66 1.32 1.32 2 2 C1.6875 3.8125 1.6875 3.8125 1 6 C0.65939189 7.66519519 0.32441604 9.33157466 0 11 C-1.32 11.33 -2.64 11.66 -4 12 C-3.34 9.69 -2.68 7.38 -2 5 C-2.66 4.67 -3.32 4.34 -4 4 C-2.68 2.68 -1.36 1.36 0 0 Z " fill="#BB9A4E" transform="translate(45,64)"/>
<path d="M0 0 C4.59808129 0.53894425 7.86784369 1.76571528 11.875 4.0625 C12.84179688 4.61035156 13.80859375 5.15820312 14.8046875 5.72265625 C15.89136719 6.35494141 15.89136719 6.35494141 17 7 C16.67 7.99 16.34 8.98 16 10 C15.43152344 9.60167969 14.86304687 9.20335937 14.27734375 8.79296875 C9.64274107 5.61296591 5.2500166 3.01064466 0 1 C0 0.67 0 0.34 0 0 Z " fill="#DED28A" transform="translate(96,11)"/>
<path d="M0 0 C0.33 0.66 0.66 1.32 1 2 C0.01 2.99 -0.98 3.98 -2 5 C-1.125 1.125 -1.125 1.125 0 0 Z M-4 6 C-3 9 -3 9 -3.70703125 11.0078125 C-4.25423828 12.05582031 -4.25423828 12.05582031 -4.8125 13.125 C-5.16957031 13.82882813 -5.52664062 14.53265625 -5.89453125 15.2578125 C-7 17 -7 17 -9 18 C-8.42365861 13.24518354 -6.44931479 10.02951788 -4 6 Z " fill="#E5C766" transform="translate(61,85)"/>
<path d="M0 0 C0.99 0.33 1.98 0.66 3 1 C2.29875 1.639375 1.5975 2.27875 0.875 2.9375 C-2.71636823 6.49799687 -5.30436965 10.74812946 -8 15 C-8.33 14.34 -8.66 13.68 -9 13 C-8.0727001 11.29181597 -7.05287814 9.63377642 -6 8 C-5.30875574 6.75206666 -4.62134557 5.50200299 -3.9375 4.25 C-2 1 -2 1 0 0 Z " fill="#C4A14A" transform="translate(94,75)"/>
<path d="M0 0 C6.4596331 1.32505294 10.38917374 5.59409935 15 10 C14.67 10.66 14.34 11.32 14 12 C12.22750476 10.5645497 10.45706424 9.12656197 8.6875 7.6875 C7.70136719 6.88699219 6.71523437 6.08648437 5.69921875 5.26171875 C3.68397834 3.57311644 1.80511991 1.90369301 0 0 Z " fill="#DDD390" transform="translate(101,25)"/>
<path d="M0 0 C3.69876091 1.37287342 6.9514476 3.06355453 10.3125 5.125 C11.19550781 5.66382813 12.07851563 6.20265625 12.98828125 6.7578125 C13.65214844 7.16773438 14.31601562 7.57765625 15 8 C12 9 12 9 9.58984375 7.890625 C8.71457031 7.34921875 7.83929688 6.8078125 6.9375 6.25 C6.05964844 5.71890625 5.18179688 5.1878125 4.27734375 4.640625 C2 3 2 3 0 0 Z " fill="#D9CE96" transform="translate(34,124)"/>
<path d="M0 0 C0 3.12900213 -0.42451317 4.37418862 -2 7 C-2.99 7.495 -2.99 7.495 -4 8 C-5.05352843 10.30965848 -6.05719096 12.6429774 -7 15 C-7.67578125 13.2890625 -7.67578125 13.2890625 -8 11 C-6.85546875 8.7109375 -6.85546875 8.7109375 -5.1875 6.375 C-4.64480469 5.59898438 -4.10210937 4.82296875 -3.54296875 4.0234375 C-2 2 -2 2 0 0 Z " fill="#CBA953" transform="translate(60,74)"/>
<path d="M0 0 C0.66 0.33 1.32 0.66 2 1 C1.34 2.98 0.68 4.96 0 7 C-1.65 7 -3.3 7 -5 7 C-3.70700306 4.11562221 -2.34058637 2.12780579 0 0 Z " fill="#9D732F" transform="translate(38,70)"/>
<path d="M0 0 C0.6875 1.8125 0.6875 1.8125 1 4 C-0.4375 5.75 -0.4375 5.75 -2 7 C-2.99 6.67 -3.98 6.34 -5 6 C-4.34 5.01 -3.68 4.02 -3 3 C-2.34 3 -1.68 3 -1 3 C-0.67 2.01 -0.34 1.02 0 0 Z " fill="#CEAD54" transform="translate(72,48)"/>
<path d="M0 0 C4.49092377 2.37754788 7.52235713 5.3606063 11 9 C10.67 9.66 10.34 10.32 10 11 C8.32742645 9.5484451 6.66208242 8.08855591 5 6.625 C3.6078125 5.40683594 3.6078125 5.40683594 2.1875 4.1640625 C1.465625 3.44992188 0.74375 2.73578125 0 2 C0 1.34 0 0.68 0 0 Z " fill="#D0BF7A" transform="translate(113,19)"/>
<path d="M0 0 C0.99 0.33 1.98 0.66 3 1 C2.34 2.98 1.68 4.96 1 7 C0.34 6.01 -0.32 5.02 -1 4 C-2.98 4.99 -2.98 4.99 -5 6 C-3.35 4.02 -1.7 2.04 0 0 Z " fill="#BFA45C" transform="translate(61,67)"/>
<path d="M0 0 C0.99 0 1.98 0 3 0 C2.75 1.875 2.75 1.875 2 4 C-0.0625 5.25 -0.0625 5.25 -2 6 C-1.125 1.125 -1.125 1.125 0 0 Z " fill="#D9C172" transform="translate(51,65)"/>
<path d="M0 0 C0.66 0 1.32 0 2 0 C1.1875 2.9375 1.1875 2.9375 0 6 C-0.99 6.33 -1.98 6.66 -3 7 C-2.25 2.25 -2.25 2.25 0 0 Z " fill="#E1C365" transform="translate(57,56)"/>
<path d="M0 0 C0.66 0 1.32 0 2 0 C1.75 1.875 1.75 1.875 1 4 C-1.0625 5.25 -1.0625 5.25 -3 6 C-2.42655063 3.13275314 -2.1385485 2.1385485 0 0 Z " fill="#E2CC7A" transform="translate(58,60)"/>
<path d="M0 0 C0.66 0.33 1.32 0.66 2 1 C-1.465 3.97 -1.465 3.97 -5 7 C-5.66 6.34 -6.32 5.68 -7 5 C-4.69 3.35 -2.38 1.7 0 0 Z " fill="#D9CD85" transform="translate(117,121)"/>
<path d="M0 0 C0.66 0.33 1.32 0.66 2 1 C0.92598892 3.91517292 0.22189824 5.77810176 -2 8 C-2.125 5.125 -2.125 5.125 -2 2 C-1.34 1.34 -0.68 0.68 0 0 Z " fill="#A17834" transform="translate(54,73)"/>
<path d="M0 0 C4.455 0.99 4.455 0.99 9 2 C9 2.99 9 3.98 9 5 C4.545 3.02 4.545 3.02 0 1 C0 0.67 0 0.34 0 0 Z " fill="#CDB872" transform="translate(92,21)"/>
</svg>
